<svg xmlns="http://www.w3.org/2000/svg" fill-rule="evenodd" stroke-linejoin="round" stroke-miterlimit="2" clip-rule="evenodd" viewBox="0 0 32 32" id="cv"><path d="M4,2c-0.552,0 -1,0.448 -1,1l0,26c0,0.552 0.448,1 1,1l13,0c0.552,0 1,-0.448 1,-1c0,-0.552 -0.448,-1 -1,-1l-12,0l0,-24l18,0l0,11c0,0.552 0.448,1 1,1c0.552,0 1,-0.448 1,-1l0,-12c0,-0.552 -0.448,-1 -1,-1l-20,0Zm10,3c-1.646,0 -3,1.354 -3,3c0,1.646 1.354,3 3,3c1.646,0 3,-1.354 3,-3c0,-1.646 -1.354,-3 -3,-3Zm0,7c-2.76,0 -5,2.24 -5,5c0,0.552 0.448,1 1,1l8,0c0.552,0 1,-0.448 1,-1c0,-2.76 -2.24,-5 -5,-5Zm10,6c-3.292,0 -6,2.708 -6,6c0,3.292 2.708,6 6,6c3.292,0 6,-2.708 6,-6c0,-3.292 -2.708,-6 -6,-6Zm-15,2c-0.552,0 -1,0.448 -1,1c0,0.552 0.448,1 1,1l6,0c0.552,0 1,-0.448 1,-1c0,-0.552 -0.448,-1 -1,-1l-6,0Zm16.5,2c0.256,0 0.512,0.098 0.707,0.293c0.39,0.39 0.39,1.024 0,1.414l-2,2c-0.39,0.391 -1.024,0.391 -1.414,0l-1,-1c-0.39,-0.39 -0.39,-1.024 -0,-1.414c0.39,-0.39 1.024,-0.39 1.414,-0l0.293,0.293l1.293,-1.293c0.195,-0.195 0.451,-0.293 0.707,-0.293Zm-16.5,2c-0.552,0 -1,0.448 -1,1c0,0.552 0.448,1 1,1l6,0c0.552,0 1,-0.448 1,-1c0,-0.552 -0.448,-1 -1,-1l-6,0Z"></path></svg>